G04 #@! TF.GenerationSoftware,KiCad,Pcbnew,(6.0.8-1)-1*
G04 #@! TF.CreationDate,2023-08-07T08:14:13+01:00*
G04 #@! TF.ProjectId,LED LAMP,4c454420-4c41-44d5-902e-6b696361645f,rev?*
G04 #@! TF.SameCoordinates,Original*
G04 #@! TF.FileFunction,Soldermask,Top*
G04 #@! TF.FilePolarity,Negative*
%FSLAX46Y46*%
G04 Gerber Fmt 4.6, Leading zero omitted, Abs format (unit mm)*
G04 Created by KiCad (PCBNEW (6.0.8-1)-1) date 2023-08-07 08:14:13*
%MOMM*%
%LPD*%
G01*
G04 APERTURE LIST*
G04 Aperture macros list*
%AMRoundRect*
0 Rectangle with rounded corners*
0 $1 Rounding radius*
0 $2 $3 $4 $5 $6 $7 $8 $9 X,Y pos of 4 corners*
0 Add a 4 corners polygon primitive as box body*
4,1,4,$2,$3,$4,$5,$6,$7,$8,$9,$2,$3,0*
0 Add four circle primitives for the rounded corners*
1,1,$1+$1,$2,$3*
1,1,$1+$1,$4,$5*
1,1,$1+$1,$6,$7*
1,1,$1+$1,$8,$9*
0 Add four rect primitives between the rounded corners*
20,1,$1+$1,$2,$3,$4,$5,0*
20,1,$1+$1,$4,$5,$6,$7,0*
20,1,$1+$1,$6,$7,$8,$9,0*
20,1,$1+$1,$8,$9,$2,$3,0*%
G04 Aperture macros list end*
%ADD10R,1.500000X1.000000*%
%ADD11R,1.700000X1.700000*%
%ADD12O,1.700000X1.700000*%
%ADD13RoundRect,0.140000X0.170000X-0.140000X0.170000X0.140000X-0.170000X0.140000X-0.170000X-0.140000X0*%
%ADD14RoundRect,0.140000X0.140000X0.170000X-0.140000X0.170000X-0.140000X-0.170000X0.140000X-0.170000X0*%
%ADD15RoundRect,0.140000X-0.170000X0.140000X-0.170000X-0.140000X0.170000X-0.140000X0.170000X0.140000X0*%
%ADD16R,2.100000X2.100000*%
%ADD17C,2.100000*%
%ADD18RoundRect,0.135000X0.185000X-0.135000X0.185000X0.135000X-0.185000X0.135000X-0.185000X-0.135000X0*%
%ADD19R,1.000000X1.500000*%
G04 APERTURE END LIST*
D10*
X209968000Y-21412000D03*
X209968000Y-18212000D03*
X205068000Y-18212000D03*
X205068000Y-21412000D03*
D11*
X226942200Y-28949200D03*
D12*
X226942200Y-31489200D03*
X226942200Y-34029200D03*
X226942200Y-36569200D03*
X226942200Y-39109200D03*
X226942200Y-41649200D03*
X226942200Y-44189200D03*
X226942200Y-46729200D03*
X226942200Y-49269200D03*
X226942200Y-51809200D03*
X226942200Y-54349200D03*
X226942200Y-56889200D03*
X226942200Y-59429200D03*
X226942200Y-61969200D03*
X226942200Y-64509200D03*
X226942200Y-67049200D03*
X226942200Y-69589200D03*
X226942200Y-72129200D03*
X226942200Y-74669200D03*
D13*
X191770000Y-41374000D03*
X191770000Y-40414000D03*
D14*
X221330400Y-79908400D03*
X220370400Y-79908400D03*
D15*
X237236000Y-61750000D03*
X237236000Y-62710000D03*
X200152000Y-20348000D03*
X200152000Y-21308000D03*
D16*
X240030000Y-32258000D03*
D17*
X240030000Y-29718000D03*
D18*
X196342000Y-37594000D03*
X196342000Y-36574000D03*
D15*
X237744000Y-42801600D03*
X237744000Y-43761600D03*
D13*
X199898000Y-86050000D03*
X199898000Y-85090000D03*
D10*
X218377600Y-84455200D03*
X218377600Y-87655200D03*
X223277600Y-87655200D03*
X223277600Y-84455200D03*
D19*
X184734000Y-59526000D03*
X181534000Y-59526000D03*
X181534000Y-64426000D03*
X184734000Y-64426000D03*
X243002000Y-45122000D03*
X246202000Y-45122000D03*
X246202000Y-40222000D03*
X243002000Y-40222000D03*
D11*
X201676000Y-28956000D03*
D12*
X201676000Y-31496000D03*
X201676000Y-34036000D03*
X201676000Y-36576000D03*
X201676000Y-39116000D03*
X201676000Y-41656000D03*
X201676000Y-44196000D03*
X201676000Y-46736000D03*
X201676000Y-49276000D03*
X201676000Y-51816000D03*
X201676000Y-54356000D03*
X201676000Y-56896000D03*
X201676000Y-59436000D03*
X201676000Y-61976000D03*
X201676000Y-64516000D03*
X201676000Y-67056000D03*
X201676000Y-69596000D03*
X201676000Y-72136000D03*
X201676000Y-74676000D03*
D15*
X229362000Y-19840000D03*
X229362000Y-20800000D03*
D19*
X243408400Y-63765600D03*
X246608400Y-63765600D03*
X246608400Y-58865600D03*
X243408400Y-58865600D03*
D15*
X191008000Y-62258000D03*
X191008000Y-63218000D03*
D19*
X185750000Y-38444000D03*
X182550000Y-38444000D03*
X182550000Y-43344000D03*
X185750000Y-43344000D03*
D10*
X204814000Y-83998000D03*
X204814000Y-87198000D03*
X209714000Y-87198000D03*
X209714000Y-83998000D03*
X224192000Y-21412000D03*
X224192000Y-18212000D03*
X219292000Y-18212000D03*
X219292000Y-21412000D03*
M02*
