G04 #@! TF.GenerationSoftware,KiCad,Pcbnew,(6.0.8-1)-1*
G04 #@! TF.CreationDate,2023-08-07T08:14:13+01:00*
G04 #@! TF.ProjectId,LED LAMP,4c454420-4c41-44d5-902e-6b696361645f,rev?*
G04 #@! TF.SameCoordinates,Original*
G04 #@! TF.FileFunction,Soldermask,Bot*
G04 #@! TF.FilePolarity,Negative*
%FSLAX46Y46*%
G04 Gerber Fmt 4.6, Leading zero omitted, Abs format (unit mm)*
G04 Created by KiCad (PCBNEW (6.0.8-1)-1) date 2023-08-07 08:14:13*
%MOMM*%
%LPD*%
G01*
G04 APERTURE LIST*
%ADD10R,1.700000X1.700000*%
%ADD11O,1.700000X1.700000*%
%ADD12R,2.100000X2.100000*%
%ADD13C,2.100000*%
G04 APERTURE END LIST*
D10*
X226942200Y-28949200D03*
D11*
X226942200Y-31489200D03*
X226942200Y-34029200D03*
X226942200Y-36569200D03*
X226942200Y-39109200D03*
X226942200Y-41649200D03*
X226942200Y-44189200D03*
X226942200Y-46729200D03*
X226942200Y-49269200D03*
X226942200Y-51809200D03*
X226942200Y-54349200D03*
X226942200Y-56889200D03*
X226942200Y-59429200D03*
X226942200Y-61969200D03*
X226942200Y-64509200D03*
X226942200Y-67049200D03*
X226942200Y-69589200D03*
X226942200Y-72129200D03*
X226942200Y-74669200D03*
D12*
X240030000Y-32258000D03*
D13*
X240030000Y-29718000D03*
D10*
X201676000Y-28956000D03*
D11*
X201676000Y-31496000D03*
X201676000Y-34036000D03*
X201676000Y-36576000D03*
X201676000Y-39116000D03*
X201676000Y-41656000D03*
X201676000Y-44196000D03*
X201676000Y-46736000D03*
X201676000Y-49276000D03*
X201676000Y-51816000D03*
X201676000Y-54356000D03*
X201676000Y-56896000D03*
X201676000Y-59436000D03*
X201676000Y-61976000D03*
X201676000Y-64516000D03*
X201676000Y-67056000D03*
X201676000Y-69596000D03*
X201676000Y-72136000D03*
X201676000Y-74676000D03*
M02*
