G04 #@! TF.GenerationSoftware,KiCad,Pcbnew,(6.0.8-1)-1*
G04 #@! TF.CreationDate,2023-08-07T08:14:13+01:00*
G04 #@! TF.ProjectId,LED LAMP,4c454420-4c41-44d5-902e-6b696361645f,rev?*
G04 #@! TF.SameCoordinates,Original*
G04 #@! TF.FileFunction,Paste,Top*
G04 #@! TF.FilePolarity,Positive*
%FSLAX46Y46*%
G04 Gerber Fmt 4.6, Leading zero omitted, Abs format (unit mm)*
G04 Created by KiCad (PCBNEW (6.0.8-1)-1) date 2023-08-07 08:14:13*
%MOMM*%
%LPD*%
G01*
G04 APERTURE LIST*
G04 Aperture macros list*
%AMRoundRect*
0 Rectangle with rounded corners*
0 $1 Rounding radius*
0 $2 $3 $4 $5 $6 $7 $8 $9 X,Y pos of 4 corners*
0 Add a 4 corners polygon primitive as box body*
4,1,4,$2,$3,$4,$5,$6,$7,$8,$9,$2,$3,0*
0 Add four circle primitives for the rounded corners*
1,1,$1+$1,$2,$3*
1,1,$1+$1,$4,$5*
1,1,$1+$1,$6,$7*
1,1,$1+$1,$8,$9*
0 Add four rect primitives between the rounded corners*
20,1,$1+$1,$2,$3,$4,$5,0*
20,1,$1+$1,$4,$5,$6,$7,0*
20,1,$1+$1,$6,$7,$8,$9,0*
20,1,$1+$1,$8,$9,$2,$3,0*%
G04 Aperture macros list end*
%ADD10R,1.500000X1.000000*%
%ADD11RoundRect,0.140000X0.170000X-0.140000X0.170000X0.140000X-0.170000X0.140000X-0.170000X-0.140000X0*%
%ADD12RoundRect,0.140000X0.140000X0.170000X-0.140000X0.170000X-0.140000X-0.170000X0.140000X-0.170000X0*%
%ADD13RoundRect,0.140000X-0.170000X0.140000X-0.170000X-0.140000X0.170000X-0.140000X0.170000X0.140000X0*%
%ADD14RoundRect,0.135000X0.185000X-0.135000X0.185000X0.135000X-0.185000X0.135000X-0.185000X-0.135000X0*%
%ADD15R,1.000000X1.500000*%
G04 APERTURE END LIST*
D10*
X209968000Y-21412000D03*
X209968000Y-18212000D03*
X205068000Y-18212000D03*
X205068000Y-21412000D03*
D11*
X191770000Y-41374000D03*
X191770000Y-40414000D03*
D12*
X221330400Y-79908400D03*
X220370400Y-79908400D03*
D13*
X237236000Y-61750000D03*
X237236000Y-62710000D03*
X200152000Y-20348000D03*
X200152000Y-21308000D03*
D14*
X196342000Y-37594000D03*
X196342000Y-36574000D03*
D13*
X237744000Y-42801600D03*
X237744000Y-43761600D03*
D11*
X199898000Y-86050000D03*
X199898000Y-85090000D03*
D10*
X218377600Y-84455200D03*
X218377600Y-87655200D03*
X223277600Y-87655200D03*
X223277600Y-84455200D03*
D15*
X184734000Y-59526000D03*
X181534000Y-59526000D03*
X181534000Y-64426000D03*
X184734000Y-64426000D03*
X243002000Y-45122000D03*
X246202000Y-45122000D03*
X246202000Y-40222000D03*
X243002000Y-40222000D03*
D13*
X229362000Y-19840000D03*
X229362000Y-20800000D03*
D15*
X243408400Y-63765600D03*
X246608400Y-63765600D03*
X246608400Y-58865600D03*
X243408400Y-58865600D03*
D13*
X191008000Y-62258000D03*
X191008000Y-63218000D03*
D15*
X185750000Y-38444000D03*
X182550000Y-38444000D03*
X182550000Y-43344000D03*
X185750000Y-43344000D03*
D10*
X204814000Y-83998000D03*
X204814000Y-87198000D03*
X209714000Y-87198000D03*
X209714000Y-83998000D03*
X224192000Y-21412000D03*
X224192000Y-18212000D03*
X219292000Y-18212000D03*
X219292000Y-21412000D03*
M02*
