G04 #@! TF.GenerationSoftware,KiCad,Pcbnew,(6.0.8-1)-1*
G04 #@! TF.CreationDate,2023-08-07T08:14:13+01:00*
G04 #@! TF.ProjectId,LED LAMP,4c454420-4c41-44d5-902e-6b696361645f,rev?*
G04 #@! TF.SameCoordinates,Original*
G04 #@! TF.FileFunction,Copper,L2,Bot*
G04 #@! TF.FilePolarity,Positive*
%FSLAX46Y46*%
G04 Gerber Fmt 4.6, Leading zero omitted, Abs format (unit mm)*
G04 Created by KiCad (PCBNEW (6.0.8-1)-1) date 2023-08-07 08:14:13*
%MOMM*%
%LPD*%
G01*
G04 APERTURE LIST*
G04 #@! TA.AperFunction,ComponentPad*
%ADD10R,1.700000X1.700000*%
G04 #@! TD*
G04 #@! TA.AperFunction,ComponentPad*
%ADD11O,1.700000X1.700000*%
G04 #@! TD*
G04 #@! TA.AperFunction,ComponentPad*
%ADD12R,2.100000X2.100000*%
G04 #@! TD*
G04 #@! TA.AperFunction,ComponentPad*
%ADD13C,2.100000*%
G04 #@! TD*
G04 #@! TA.AperFunction,ViaPad*
%ADD14C,0.800000*%
G04 #@! TD*
G04 #@! TA.AperFunction,Conductor*
%ADD15C,0.254000*%
G04 #@! TD*
G04 APERTURE END LIST*
D10*
X226942200Y-28949200D03*
D11*
X226942200Y-31489200D03*
X226942200Y-34029200D03*
X226942200Y-36569200D03*
X226942200Y-39109200D03*
X226942200Y-41649200D03*
X226942200Y-44189200D03*
X226942200Y-46729200D03*
X226942200Y-49269200D03*
X226942200Y-51809200D03*
X226942200Y-54349200D03*
X226942200Y-56889200D03*
X226942200Y-59429200D03*
X226942200Y-61969200D03*
X226942200Y-64509200D03*
X226942200Y-67049200D03*
X226942200Y-69589200D03*
X226942200Y-72129200D03*
X226942200Y-74669200D03*
D12*
X240030000Y-32258000D03*
D13*
X240030000Y-29718000D03*
D10*
X201676000Y-28956000D03*
D11*
X201676000Y-31496000D03*
X201676000Y-34036000D03*
X201676000Y-36576000D03*
X201676000Y-39116000D03*
X201676000Y-41656000D03*
X201676000Y-44196000D03*
X201676000Y-46736000D03*
X201676000Y-49276000D03*
X201676000Y-51816000D03*
X201676000Y-54356000D03*
X201676000Y-56896000D03*
X201676000Y-59436000D03*
X201676000Y-61976000D03*
X201676000Y-64516000D03*
X201676000Y-67056000D03*
X201676000Y-69596000D03*
X201676000Y-72136000D03*
X201676000Y-74676000D03*
D14*
X182981600Y-67818000D03*
X207111600Y-71475600D03*
X200609200Y-90474800D03*
X235356400Y-41706800D03*
X183743600Y-46431200D03*
X250139200Y-60401200D03*
X226212400Y-81584800D03*
X232206800Y-32258000D03*
X187299600Y-46482000D03*
X202539600Y-85852000D03*
X227888800Y-85902800D03*
X206451200Y-91897200D03*
X189280800Y-61620400D03*
X231292400Y-27533600D03*
X229819200Y-38862000D03*
X237134400Y-75184000D03*
X238658400Y-60401200D03*
X232918000Y-66141600D03*
X239420400Y-38506400D03*
X191617600Y-34137600D03*
X192379600Y-65684400D03*
X194767200Y-74320400D03*
X198475600Y-63855600D03*
X235762800Y-64820800D03*
X192430400Y-37693600D03*
X242925600Y-35966400D03*
X240741200Y-41960800D03*
X233629200Y-51511200D03*
X234340400Y-37947600D03*
X226314000Y-19253200D03*
D15*
X202539600Y-87426800D02*
X202539600Y-87985600D01*
X187604400Y-67564000D02*
X187350400Y-67818000D01*
X235356400Y-39928800D02*
X235356400Y-41706800D01*
X189280800Y-61620400D02*
X187604400Y-63296800D01*
X200609200Y-90474800D02*
X202539600Y-88544400D01*
X227888800Y-83261200D02*
X227888800Y-85902800D01*
X187604400Y-63296800D02*
X187604400Y-67564000D01*
X202539600Y-85852000D02*
X202539600Y-87426800D01*
X238658400Y-60401200D02*
X250139200Y-60401200D01*
X228209000Y-40472200D02*
X226454670Y-40472200D01*
X237134400Y-75184000D02*
X237134400Y-70358000D01*
X207111600Y-59815270D02*
X207111600Y-71475600D01*
X202539600Y-87985600D02*
X206451200Y-91897200D01*
X236931200Y-38354000D02*
X235356400Y-39928800D01*
X231292400Y-31343600D02*
X232206800Y-32258000D01*
X202539600Y-88544400D02*
X202539600Y-87426800D01*
X183794400Y-46482000D02*
X183743600Y-46431200D01*
X226454670Y-40472200D02*
X207111600Y-59815270D01*
X226212400Y-81584800D02*
X227888800Y-83261200D01*
X237134400Y-70358000D02*
X232918000Y-66141600D01*
X239420400Y-38506400D02*
X239268000Y-38354000D01*
X187299600Y-46482000D02*
X183794400Y-46482000D01*
X187350400Y-67818000D02*
X182981600Y-67818000D01*
X229819200Y-38862000D02*
X228209000Y-40472200D01*
X239268000Y-38354000D02*
X236931200Y-38354000D01*
X231292400Y-27533600D02*
X231292400Y-31343600D01*
X242925600Y-35966400D02*
X242925600Y-36029334D01*
X191617600Y-34137600D02*
X191617600Y-36880800D01*
X191617600Y-36880800D02*
X192430400Y-37693600D01*
X192379600Y-65684400D02*
X196646800Y-65684400D01*
X242925600Y-36029334D02*
X240741200Y-38213734D01*
X196646800Y-65684400D02*
X198475600Y-63855600D01*
X240741200Y-38213734D02*
X240741200Y-41960800D01*
X233629200Y-62687200D02*
X233629200Y-51511200D01*
X194767200Y-67564000D02*
X196646800Y-65684400D01*
X235762800Y-64820800D02*
X233629200Y-62687200D01*
X194767200Y-74320400D02*
X194767200Y-67564000D01*
X226314000Y-19253200D02*
X234340400Y-27279600D01*
X234340400Y-27279600D02*
X234340400Y-37947600D01*
M02*
