%TF.GenerationSoftware,KiCad,Pcbnew,(6.0.8-1)-1*%
%TF.CreationDate,2023-08-07T08:14:22+01:00*%
%TF.ProjectId,LED LAMP,4c454420-4c41-44d5-902e-6b696361645f,rev?*%
%TF.SameCoordinates,Original*%
%TF.FileFunction,Drillmap*%
%TF.FilePolarity,Positive*%
%FSLAX45Y45*%
G04 Gerber Fmt 4.5, Leading zero omitted, Abs format (unit mm)*
G04 Created by KiCad (PCBNEW (6.0.8-1)-1) date 2023-08-07 08:14:22*
%MOMM*%
%LPD*%
G01*
G04 APERTURE LIST*
%ADD10C,0.100000*%
%ADD11C,0.200000*%
G04 APERTURE END LIST*
D10*
X25489210Y-5330000D02*
G75*
G03*
X25489210Y-5330000I-4096210J0D01*
G01*
D11*
X17549409Y-9741686D02*
X17549409Y-9541686D01*
X17597028Y-9541686D01*
X17625600Y-9551210D01*
X17644647Y-9570257D01*
X17654171Y-9589305D01*
X17663695Y-9627400D01*
X17663695Y-9655972D01*
X17654171Y-9694067D01*
X17644647Y-9713114D01*
X17625600Y-9732162D01*
X17597028Y-9741686D01*
X17549409Y-9741686D01*
X17749409Y-9741686D02*
X17749409Y-9608353D01*
X17749409Y-9646448D02*
X17758933Y-9627400D01*
X17768457Y-9617876D01*
X17787505Y-9608353D01*
X17806552Y-9608353D01*
X17873219Y-9741686D02*
X17873219Y-9608353D01*
X17873219Y-9541686D02*
X17863695Y-9551210D01*
X17873219Y-9560734D01*
X17882743Y-9551210D01*
X17873219Y-9541686D01*
X17873219Y-9560734D01*
X17997028Y-9741686D02*
X17977981Y-9732162D01*
X17968457Y-9713114D01*
X17968457Y-9541686D01*
X18101790Y-9741686D02*
X18082743Y-9732162D01*
X18073219Y-9713114D01*
X18073219Y-9541686D01*
X18330362Y-9741686D02*
X18330362Y-9541686D01*
X18397028Y-9684543D01*
X18463695Y-9541686D01*
X18463695Y-9741686D01*
X18644647Y-9741686D02*
X18644647Y-9636924D01*
X18635124Y-9617876D01*
X18616076Y-9608353D01*
X18577981Y-9608353D01*
X18558933Y-9617876D01*
X18644647Y-9732162D02*
X18625600Y-9741686D01*
X18577981Y-9741686D01*
X18558933Y-9732162D01*
X18549409Y-9713114D01*
X18549409Y-9694067D01*
X18558933Y-9675019D01*
X18577981Y-9665495D01*
X18625600Y-9665495D01*
X18644647Y-9655972D01*
X18739886Y-9608353D02*
X18739886Y-9808353D01*
X18739886Y-9617876D02*
X18758933Y-9608353D01*
X18797028Y-9608353D01*
X18816076Y-9617876D01*
X18825600Y-9627400D01*
X18835124Y-9646448D01*
X18835124Y-9703591D01*
X18825600Y-9722638D01*
X18816076Y-9732162D01*
X18797028Y-9741686D01*
X18758933Y-9741686D01*
X18739886Y-9732162D01*
X18920838Y-9722638D02*
X18930362Y-9732162D01*
X18920838Y-9741686D01*
X18911314Y-9732162D01*
X18920838Y-9722638D01*
X18920838Y-9741686D01*
X18920838Y-9617876D02*
X18930362Y-9627400D01*
X18920838Y-9636924D01*
X18911314Y-9627400D01*
X18920838Y-9617876D01*
X18920838Y-9636924D01*
M02*
