G04 #@! TF.GenerationSoftware,KiCad,Pcbnew,(6.0.8-1)-1*
G04 #@! TF.CreationDate,2023-08-07T08:14:13+01:00*
G04 #@! TF.ProjectId,LED LAMP,4c454420-4c41-44d5-902e-6b696361645f,rev?*
G04 #@! TF.SameCoordinates,Original*
G04 #@! TF.FileFunction,Legend,Top*
G04 #@! TF.FilePolarity,Positive*
%FSLAX46Y46*%
G04 Gerber Fmt 4.6, Leading zero omitted, Abs format (unit mm)*
G04 Created by KiCad (PCBNEW (6.0.8-1)-1) date 2023-08-07 08:14:13*
%MOMM*%
%LPD*%
G01*
G04 APERTURE LIST*
G04 Aperture macros list*
%AMRoundRect*
0 Rectangle with rounded corners*
0 $1 Rounding radius*
0 $2 $3 $4 $5 $6 $7 $8 $9 X,Y pos of 4 corners*
0 Add a 4 corners polygon primitive as box body*
4,1,4,$2,$3,$4,$5,$6,$7,$8,$9,$2,$3,0*
0 Add four circle primitives for the rounded corners*
1,1,$1+$1,$2,$3*
1,1,$1+$1,$4,$5*
1,1,$1+$1,$6,$7*
1,1,$1+$1,$8,$9*
0 Add four rect primitives between the rounded corners*
20,1,$1+$1,$2,$3,$4,$5,0*
20,1,$1+$1,$4,$5,$6,$7,0*
20,1,$1+$1,$6,$7,$8,$9,0*
20,1,$1+$1,$8,$9,$2,$3,0*%
G04 Aperture macros list end*
%ADD10C,0.150000*%
%ADD11C,0.120000*%
%ADD12R,1.500000X1.000000*%
%ADD13R,1.700000X1.700000*%
%ADD14O,1.700000X1.700000*%
%ADD15RoundRect,0.140000X0.170000X-0.140000X0.170000X0.140000X-0.170000X0.140000X-0.170000X-0.140000X0*%
%ADD16RoundRect,0.140000X0.140000X0.170000X-0.140000X0.170000X-0.140000X-0.170000X0.140000X-0.170000X0*%
%ADD17RoundRect,0.140000X-0.170000X0.140000X-0.170000X-0.140000X0.170000X-0.140000X0.170000X0.140000X0*%
%ADD18R,2.100000X2.100000*%
%ADD19C,2.100000*%
%ADD20RoundRect,0.135000X0.185000X-0.135000X0.185000X0.135000X-0.185000X0.135000X-0.185000X-0.135000X0*%
%ADD21R,1.000000X1.500000*%
G04 APERTURE END LIST*
D10*
X203454000Y-27127200D02*
X225094800Y-27178000D01*
X203454000Y-76454000D02*
X225094800Y-76403200D01*
X214680571Y-53344857D02*
X214680571Y-53011523D01*
X215204380Y-52868666D02*
X215204380Y-53344857D01*
X214204380Y-53344857D01*
X214204380Y-52868666D01*
X215156761Y-52487714D02*
X215204380Y-52344857D01*
X215204380Y-52106761D01*
X215156761Y-52011523D01*
X215109142Y-51963904D01*
X215013904Y-51916285D01*
X214918666Y-51916285D01*
X214823428Y-51963904D01*
X214775809Y-52011523D01*
X214728190Y-52106761D01*
X214680571Y-52297238D01*
X214632952Y-52392476D01*
X214585333Y-52440095D01*
X214490095Y-52487714D01*
X214394857Y-52487714D01*
X214299619Y-52440095D01*
X214252000Y-52392476D01*
X214204380Y-52297238D01*
X214204380Y-52059142D01*
X214252000Y-51916285D01*
X215204380Y-51487714D02*
X214204380Y-51487714D01*
X214204380Y-51106761D01*
X214252000Y-51011523D01*
X214299619Y-50963904D01*
X214394857Y-50916285D01*
X214537714Y-50916285D01*
X214632952Y-50963904D01*
X214680571Y-51011523D01*
X214728190Y-51106761D01*
X214728190Y-51487714D01*
X214204380Y-50582952D02*
X214204380Y-49963904D01*
X214585333Y-50297238D01*
X214585333Y-50154380D01*
X214632952Y-50059142D01*
X214680571Y-50011523D01*
X214775809Y-49963904D01*
X215013904Y-49963904D01*
X215109142Y-50011523D01*
X215156761Y-50059142D01*
X215204380Y-50154380D01*
X215204380Y-50440095D01*
X215156761Y-50535333D01*
X215109142Y-50582952D01*
X214299619Y-49582952D02*
X214252000Y-49535333D01*
X214204380Y-49440095D01*
X214204380Y-49202000D01*
X214252000Y-49106761D01*
X214299619Y-49059142D01*
X214394857Y-49011523D01*
X214490095Y-49011523D01*
X214632952Y-49059142D01*
X215204380Y-49630571D01*
X215204380Y-49011523D01*
X237807523Y-35012380D02*
X237331333Y-35012380D01*
X237283714Y-35488571D01*
X237331333Y-35440952D01*
X237426571Y-35393333D01*
X237664666Y-35393333D01*
X237759904Y-35440952D01*
X237807523Y-35488571D01*
X237855142Y-35583809D01*
X237855142Y-35821904D01*
X237807523Y-35917142D01*
X237759904Y-35964761D01*
X237664666Y-36012380D01*
X237426571Y-36012380D01*
X237331333Y-35964761D01*
X237283714Y-35917142D01*
X238140857Y-35012380D02*
X238474190Y-36012380D01*
X238807523Y-35012380D01*
X252900571Y-55230400D02*
X251400571Y-55230400D01*
X252900571Y-54373257D01*
X251400571Y-54373257D01*
X252186285Y-53373257D02*
X252900571Y-53373257D01*
X251400571Y-53873257D02*
X252186285Y-53373257D01*
X251400571Y-52873257D01*
X252757714Y-51230400D02*
X252829142Y-51158971D01*
X252900571Y-51230400D01*
X252829142Y-51301828D01*
X252757714Y-51230400D01*
X252900571Y-51230400D01*
X251972000Y-51230400D02*
X252043428Y-51158971D01*
X252114857Y-51230400D01*
X252043428Y-51301828D01*
X251972000Y-51230400D01*
X252114857Y-51230400D01*
X253472000Y-50658971D02*
X253400571Y-50587542D01*
X253186285Y-50444685D01*
X253043428Y-50373257D01*
X252829142Y-50301828D01*
X252472000Y-50230400D01*
X252186285Y-50230400D01*
X251829142Y-50301828D01*
X251614857Y-50373257D01*
X251472000Y-50444685D01*
X251257714Y-50587542D01*
X251186285Y-50658971D01*
X239522095Y-26068400D02*
X239426857Y-26020780D01*
X239284000Y-26020780D01*
X239141142Y-26068400D01*
X239045904Y-26163638D01*
X238998285Y-26258876D01*
X238950666Y-26449352D01*
X238950666Y-26592209D01*
X238998285Y-26782685D01*
X239045904Y-26877923D01*
X239141142Y-26973161D01*
X239284000Y-27020780D01*
X239379238Y-27020780D01*
X239522095Y-26973161D01*
X239569714Y-26925542D01*
X239569714Y-26592209D01*
X239379238Y-26592209D01*
X239998285Y-27020780D02*
X239998285Y-26020780D01*
X240569714Y-27020780D01*
X240569714Y-26020780D01*
X241045904Y-27020780D02*
X241045904Y-26020780D01*
X241284000Y-26020780D01*
X241426857Y-26068400D01*
X241522095Y-26163638D01*
X241569714Y-26258876D01*
X241617333Y-26449352D01*
X241617333Y-26592209D01*
X241569714Y-26782685D01*
X241522095Y-26877923D01*
X241426857Y-26973161D01*
X241284000Y-27020780D01*
X241045904Y-27020780D01*
X226608866Y-25631580D02*
X226608866Y-26345866D01*
X226561247Y-26488723D01*
X226466009Y-26583961D01*
X226323152Y-26631580D01*
X226227914Y-26631580D01*
X226989819Y-25631580D02*
X227608866Y-25631580D01*
X227275533Y-26012533D01*
X227418390Y-26012533D01*
X227513628Y-26060152D01*
X227561247Y-26107771D01*
X227608866Y-26203009D01*
X227608866Y-26441104D01*
X227561247Y-26536342D01*
X227513628Y-26583961D01*
X227418390Y-26631580D01*
X227132676Y-26631580D01*
X227037438Y-26583961D01*
X226989819Y-26536342D01*
X195624380Y-37250666D02*
X195148190Y-37584000D01*
X195624380Y-37822095D02*
X194624380Y-37822095D01*
X194624380Y-37441142D01*
X194672000Y-37345904D01*
X194719619Y-37298285D01*
X194814857Y-37250666D01*
X194957714Y-37250666D01*
X195052952Y-37298285D01*
X195100571Y-37345904D01*
X195148190Y-37441142D01*
X195148190Y-37822095D01*
X195624380Y-36298285D02*
X195624380Y-36869714D01*
X195624380Y-36584000D02*
X194624380Y-36584000D01*
X194767238Y-36679238D01*
X194862476Y-36774476D01*
X194910095Y-36869714D01*
X201342666Y-25638380D02*
X201342666Y-26352666D01*
X201295047Y-26495523D01*
X201199809Y-26590761D01*
X201056952Y-26638380D01*
X200961714Y-26638380D01*
X201771238Y-25733619D02*
X201818857Y-25686000D01*
X201914095Y-25638380D01*
X202152190Y-25638380D01*
X202247428Y-25686000D01*
X202295047Y-25733619D01*
X202342666Y-25828857D01*
X202342666Y-25924095D01*
X202295047Y-26066952D01*
X201723619Y-26638380D01*
X202342666Y-26638380D01*
D11*
X203868000Y-17062000D02*
X211168000Y-17062000D01*
X203868000Y-22562000D02*
X211168000Y-22562000D01*
X211168000Y-22562000D02*
X211168000Y-21412000D01*
X228272200Y-30219200D02*
X228272200Y-75999200D01*
X225612200Y-30219200D02*
X225612200Y-75999200D01*
X225612200Y-30219200D02*
X228272200Y-30219200D01*
X228272200Y-27619200D02*
X228272200Y-28949200D01*
X225612200Y-75999200D02*
X228272200Y-75999200D01*
X226942200Y-27619200D02*
X228272200Y-27619200D01*
X192130000Y-41001836D02*
X192130000Y-40786164D01*
X191410000Y-41001836D02*
X191410000Y-40786164D01*
X220958236Y-80268400D02*
X220742564Y-80268400D01*
X220958236Y-79548400D02*
X220742564Y-79548400D01*
X236876000Y-62122164D02*
X236876000Y-62337836D01*
X237596000Y-62122164D02*
X237596000Y-62337836D01*
X199792000Y-20720164D02*
X199792000Y-20935836D01*
X200512000Y-20720164D02*
X200512000Y-20935836D01*
X243640000Y-34118000D02*
X243640000Y-33718000D01*
X236660000Y-33878000D02*
X236660000Y-28098000D01*
X236660000Y-28098000D02*
X243400000Y-28098000D01*
X242880000Y-33878000D02*
X242880000Y-28098000D01*
X237780000Y-33878000D02*
X237780000Y-28098000D01*
X243400000Y-33878000D02*
X243400000Y-28098000D01*
X236660000Y-33878000D02*
X243400000Y-33878000D01*
X243000000Y-34118000D02*
X243640000Y-34118000D01*
X196722000Y-37237641D02*
X196722000Y-36930359D01*
X195962000Y-37237641D02*
X195962000Y-36930359D01*
X238104000Y-43173764D02*
X238104000Y-43389436D01*
X237384000Y-43173764D02*
X237384000Y-43389436D01*
X199538000Y-85677836D02*
X199538000Y-85462164D01*
X200258000Y-85677836D02*
X200258000Y-85462164D01*
X224477600Y-88805200D02*
X217177600Y-88805200D01*
X224477600Y-83305200D02*
X217177600Y-83305200D01*
X217177600Y-83305200D02*
X217177600Y-84455200D01*
X185884000Y-58326000D02*
X184734000Y-58326000D01*
X185884000Y-65626000D02*
X185884000Y-58326000D01*
X180384000Y-65626000D02*
X180384000Y-58326000D01*
X241852000Y-46322000D02*
X243002000Y-46322000D01*
X247352000Y-39022000D02*
X247352000Y-46322000D01*
X241852000Y-39022000D02*
X241852000Y-46322000D01*
X203006000Y-30226000D02*
X203006000Y-76006000D01*
X200346000Y-30226000D02*
X203006000Y-30226000D01*
X200346000Y-76006000D02*
X203006000Y-76006000D01*
X203006000Y-27626000D02*
X203006000Y-28956000D01*
X200346000Y-30226000D02*
X200346000Y-76006000D01*
X201676000Y-27626000D02*
X203006000Y-27626000D01*
X229002000Y-20212164D02*
X229002000Y-20427836D01*
X229722000Y-20212164D02*
X229722000Y-20427836D01*
X242258400Y-64965600D02*
X243408400Y-64965600D01*
X242258400Y-57665600D02*
X242258400Y-64965600D01*
X247758400Y-57665600D02*
X247758400Y-64965600D01*
X191368000Y-62630164D02*
X191368000Y-62845836D01*
X190648000Y-62630164D02*
X190648000Y-62845836D01*
X181400000Y-44544000D02*
X181400000Y-37244000D01*
X186900000Y-44544000D02*
X186900000Y-37244000D01*
X186900000Y-37244000D02*
X185750000Y-37244000D01*
X203614000Y-82848000D02*
X203614000Y-83998000D01*
X210914000Y-88348000D02*
X203614000Y-88348000D01*
X210914000Y-82848000D02*
X203614000Y-82848000D01*
X218092000Y-17062000D02*
X225392000Y-17062000D01*
X218092000Y-22562000D02*
X225392000Y-22562000D01*
X225392000Y-22562000D02*
X225392000Y-21412000D01*
%LPC*%
D12*
X209968000Y-21412000D03*
X209968000Y-18212000D03*
X205068000Y-18212000D03*
X205068000Y-21412000D03*
D13*
X226942200Y-28949200D03*
D14*
X226942200Y-31489200D03*
X226942200Y-34029200D03*
X226942200Y-36569200D03*
X226942200Y-39109200D03*
X226942200Y-41649200D03*
X226942200Y-44189200D03*
X226942200Y-46729200D03*
X226942200Y-49269200D03*
X226942200Y-51809200D03*
X226942200Y-54349200D03*
X226942200Y-56889200D03*
X226942200Y-59429200D03*
X226942200Y-61969200D03*
X226942200Y-64509200D03*
X226942200Y-67049200D03*
X226942200Y-69589200D03*
X226942200Y-72129200D03*
X226942200Y-74669200D03*
D15*
X191770000Y-41374000D03*
X191770000Y-40414000D03*
D16*
X221330400Y-79908400D03*
X220370400Y-79908400D03*
D17*
X237236000Y-61750000D03*
X237236000Y-62710000D03*
X200152000Y-20348000D03*
X200152000Y-21308000D03*
D18*
X240030000Y-32258000D03*
D19*
X240030000Y-29718000D03*
D20*
X196342000Y-37594000D03*
X196342000Y-36574000D03*
D17*
X237744000Y-42801600D03*
X237744000Y-43761600D03*
D15*
X199898000Y-86050000D03*
X199898000Y-85090000D03*
D12*
X218377600Y-84455200D03*
X218377600Y-87655200D03*
X223277600Y-87655200D03*
X223277600Y-84455200D03*
D21*
X184734000Y-59526000D03*
X181534000Y-59526000D03*
X181534000Y-64426000D03*
X184734000Y-64426000D03*
X243002000Y-45122000D03*
X246202000Y-45122000D03*
X246202000Y-40222000D03*
X243002000Y-40222000D03*
D13*
X201676000Y-28956000D03*
D14*
X201676000Y-31496000D03*
X201676000Y-34036000D03*
X201676000Y-36576000D03*
X201676000Y-39116000D03*
X201676000Y-41656000D03*
X201676000Y-44196000D03*
X201676000Y-46736000D03*
X201676000Y-49276000D03*
X201676000Y-51816000D03*
X201676000Y-54356000D03*
X201676000Y-56896000D03*
X201676000Y-59436000D03*
X201676000Y-61976000D03*
X201676000Y-64516000D03*
X201676000Y-67056000D03*
X201676000Y-69596000D03*
X201676000Y-72136000D03*
X201676000Y-74676000D03*
D17*
X229362000Y-19840000D03*
X229362000Y-20800000D03*
D21*
X243408400Y-63765600D03*
X246608400Y-63765600D03*
X246608400Y-58865600D03*
X243408400Y-58865600D03*
D17*
X191008000Y-62258000D03*
X191008000Y-63218000D03*
D21*
X185750000Y-38444000D03*
X182550000Y-38444000D03*
X182550000Y-43344000D03*
X185750000Y-43344000D03*
D12*
X204814000Y-83998000D03*
X204814000Y-87198000D03*
X209714000Y-87198000D03*
X209714000Y-83998000D03*
X224192000Y-21412000D03*
X224192000Y-18212000D03*
X219292000Y-18212000D03*
X219292000Y-21412000D03*
M02*
