G04 #@! TF.GenerationSoftware,KiCad,Pcbnew,(6.0.8-1)-1*
G04 #@! TF.CreationDate,2023-08-07T08:14:13+01:00*
G04 #@! TF.ProjectId,LED LAMP,4c454420-4c41-44d5-902e-6b696361645f,rev?*
G04 #@! TF.SameCoordinates,Original*
G04 #@! TF.FileFunction,Copper,L1,Top*
G04 #@! TF.FilePolarity,Positive*
%FSLAX46Y46*%
G04 Gerber Fmt 4.6, Leading zero omitted, Abs format (unit mm)*
G04 Created by KiCad (PCBNEW (6.0.8-1)-1) date 2023-08-07 08:14:13*
%MOMM*%
%LPD*%
G01*
G04 APERTURE LIST*
G04 Aperture macros list*
%AMRoundRect*
0 Rectangle with rounded corners*
0 $1 Rounding radius*
0 $2 $3 $4 $5 $6 $7 $8 $9 X,Y pos of 4 corners*
0 Add a 4 corners polygon primitive as box body*
4,1,4,$2,$3,$4,$5,$6,$7,$8,$9,$2,$3,0*
0 Add four circle primitives for the rounded corners*
1,1,$1+$1,$2,$3*
1,1,$1+$1,$4,$5*
1,1,$1+$1,$6,$7*
1,1,$1+$1,$8,$9*
0 Add four rect primitives between the rounded corners*
20,1,$1+$1,$2,$3,$4,$5,0*
20,1,$1+$1,$4,$5,$6,$7,0*
20,1,$1+$1,$6,$7,$8,$9,0*
20,1,$1+$1,$8,$9,$2,$3,0*%
G04 Aperture macros list end*
G04 #@! TA.AperFunction,SMDPad,CuDef*
%ADD10R,1.500000X1.000000*%
G04 #@! TD*
G04 #@! TA.AperFunction,ComponentPad*
%ADD11R,1.700000X1.700000*%
G04 #@! TD*
G04 #@! TA.AperFunction,ComponentPad*
%ADD12O,1.700000X1.700000*%
G04 #@! TD*
G04 #@! TA.AperFunction,SMDPad,CuDef*
%ADD13RoundRect,0.140000X0.170000X-0.140000X0.170000X0.140000X-0.170000X0.140000X-0.170000X-0.140000X0*%
G04 #@! TD*
G04 #@! TA.AperFunction,SMDPad,CuDef*
%ADD14RoundRect,0.140000X0.140000X0.170000X-0.140000X0.170000X-0.140000X-0.170000X0.140000X-0.170000X0*%
G04 #@! TD*
G04 #@! TA.AperFunction,SMDPad,CuDef*
%ADD15RoundRect,0.140000X-0.170000X0.140000X-0.170000X-0.140000X0.170000X-0.140000X0.170000X0.140000X0*%
G04 #@! TD*
G04 #@! TA.AperFunction,ComponentPad*
%ADD16R,2.100000X2.100000*%
G04 #@! TD*
G04 #@! TA.AperFunction,ComponentPad*
%ADD17C,2.100000*%
G04 #@! TD*
G04 #@! TA.AperFunction,SMDPad,CuDef*
%ADD18RoundRect,0.135000X0.185000X-0.135000X0.185000X0.135000X-0.185000X0.135000X-0.185000X-0.135000X0*%
G04 #@! TD*
G04 #@! TA.AperFunction,SMDPad,CuDef*
%ADD19R,1.000000X1.500000*%
G04 #@! TD*
G04 #@! TA.AperFunction,ViaPad*
%ADD20C,0.800000*%
G04 #@! TD*
G04 #@! TA.AperFunction,Conductor*
%ADD21C,0.254000*%
G04 #@! TD*
G04 APERTURE END LIST*
D10*
X209968000Y-21412000D03*
X209968000Y-18212000D03*
X205068000Y-18212000D03*
X205068000Y-21412000D03*
D11*
X226942200Y-28949200D03*
D12*
X226942200Y-31489200D03*
X226942200Y-34029200D03*
X226942200Y-36569200D03*
X226942200Y-39109200D03*
X226942200Y-41649200D03*
X226942200Y-44189200D03*
X226942200Y-46729200D03*
X226942200Y-49269200D03*
X226942200Y-51809200D03*
X226942200Y-54349200D03*
X226942200Y-56889200D03*
X226942200Y-59429200D03*
X226942200Y-61969200D03*
X226942200Y-64509200D03*
X226942200Y-67049200D03*
X226942200Y-69589200D03*
X226942200Y-72129200D03*
X226942200Y-74669200D03*
D13*
X191770000Y-41374000D03*
X191770000Y-40414000D03*
D14*
X221330400Y-79908400D03*
X220370400Y-79908400D03*
D15*
X237236000Y-61750000D03*
X237236000Y-62710000D03*
X200152000Y-20348000D03*
X200152000Y-21308000D03*
D16*
X240030000Y-32258000D03*
D17*
X240030000Y-29718000D03*
D18*
X196342000Y-37594000D03*
X196342000Y-36574000D03*
D15*
X237744000Y-42801600D03*
X237744000Y-43761600D03*
D13*
X199898000Y-86050000D03*
X199898000Y-85090000D03*
D10*
X218377600Y-84455200D03*
X218377600Y-87655200D03*
X223277600Y-87655200D03*
X223277600Y-84455200D03*
D19*
X184734000Y-59526000D03*
X181534000Y-59526000D03*
X181534000Y-64426000D03*
X184734000Y-64426000D03*
X243002000Y-45122000D03*
X246202000Y-45122000D03*
X246202000Y-40222000D03*
X243002000Y-40222000D03*
D11*
X201676000Y-28956000D03*
D12*
X201676000Y-31496000D03*
X201676000Y-34036000D03*
X201676000Y-36576000D03*
X201676000Y-39116000D03*
X201676000Y-41656000D03*
X201676000Y-44196000D03*
X201676000Y-46736000D03*
X201676000Y-49276000D03*
X201676000Y-51816000D03*
X201676000Y-54356000D03*
X201676000Y-56896000D03*
X201676000Y-59436000D03*
X201676000Y-61976000D03*
X201676000Y-64516000D03*
X201676000Y-67056000D03*
X201676000Y-69596000D03*
X201676000Y-72136000D03*
X201676000Y-74676000D03*
D15*
X229362000Y-19840000D03*
X229362000Y-20800000D03*
D19*
X243408400Y-63765600D03*
X246608400Y-63765600D03*
X246608400Y-58865600D03*
X243408400Y-58865600D03*
D15*
X191008000Y-62258000D03*
X191008000Y-63218000D03*
D19*
X185750000Y-38444000D03*
X182550000Y-38444000D03*
X182550000Y-43344000D03*
X185750000Y-43344000D03*
D10*
X204814000Y-83998000D03*
X204814000Y-87198000D03*
X209714000Y-87198000D03*
X209714000Y-83998000D03*
X224192000Y-21412000D03*
X224192000Y-18212000D03*
X219292000Y-18212000D03*
X219292000Y-21412000D03*
D20*
X182981600Y-67818000D03*
X207111600Y-71475600D03*
X200609200Y-90474800D03*
X235356400Y-41706800D03*
X183743600Y-46431200D03*
X250139200Y-60401200D03*
X226212400Y-81584800D03*
X232206800Y-32258000D03*
X187299600Y-46482000D03*
X202539600Y-85852000D03*
X227888800Y-85902800D03*
X206451200Y-91897200D03*
X189280800Y-61620400D03*
X231292400Y-27533600D03*
X229819200Y-38862000D03*
X237134400Y-75184000D03*
X238658400Y-60401200D03*
X232918000Y-66141600D03*
X239420400Y-38506400D03*
X191617600Y-34137600D03*
X192379600Y-65684400D03*
X194767200Y-74320400D03*
X198475600Y-63855600D03*
X235762800Y-64820800D03*
X192430400Y-37693600D03*
X242925600Y-35966400D03*
X240741200Y-41960800D03*
X233629200Y-51511200D03*
X234340400Y-37947600D03*
X226314000Y-19253200D03*
D21*
X250139200Y-60401200D02*
X248603600Y-58865600D01*
X182550000Y-45237600D02*
X182550000Y-43344000D01*
X205068000Y-16775600D02*
X206603600Y-15240000D01*
X181534000Y-64426000D02*
X181534000Y-73177600D01*
X191008000Y-62258000D02*
X189918400Y-62258000D01*
X219442000Y-91490800D02*
X223277600Y-87655200D01*
X240030000Y-36271200D02*
X240030000Y-32258000D01*
X205068000Y-18212000D02*
X205068000Y-16775600D01*
X230710800Y-19840000D02*
X233222800Y-22352000D01*
X194106800Y-62687200D02*
X193677600Y-62258000D01*
X191770000Y-41374000D02*
X191770000Y-42011600D01*
X236423200Y-32258000D02*
X229819200Y-38862000D01*
X200096000Y-85852000D02*
X202539600Y-85852000D01*
X206451200Y-91897200D02*
X209714000Y-88634400D01*
X209714000Y-88634400D02*
X209714000Y-87198000D01*
X226136400Y-87655200D02*
X223277600Y-87655200D01*
X232918000Y-62534800D02*
X233702800Y-61750000D01*
X225247200Y-91135200D02*
X226364800Y-91135200D01*
X240030000Y-32258000D02*
X236423200Y-32258000D01*
X244856000Y-37084000D02*
X240842800Y-37084000D01*
X183743600Y-46431200D02*
X182550000Y-45237600D01*
X223277600Y-87655200D02*
X223277600Y-89165600D01*
X193677600Y-62258000D02*
X191008000Y-62258000D01*
X229362000Y-19840000D02*
X230710800Y-19840000D01*
X236649200Y-41706800D02*
X237744000Y-42801600D01*
X225117600Y-15595600D02*
X229362000Y-19840000D01*
X232206800Y-32258000D02*
X236423200Y-32258000D01*
X246202000Y-40222000D02*
X246202000Y-38430000D01*
X240842800Y-37084000D02*
X239420400Y-38506400D01*
X182550000Y-43344000D02*
X180734800Y-43344000D01*
X235356400Y-41706800D02*
X236649200Y-41706800D01*
X227888800Y-85902800D02*
X226136400Y-87655200D01*
X248603600Y-58865600D02*
X246608400Y-58865600D01*
X189918400Y-62258000D02*
X189280800Y-61620400D01*
X177952400Y-60844400D02*
X181534000Y-64426000D01*
X233222800Y-22352000D02*
X233222800Y-25044400D01*
X206603600Y-15240000D02*
X216320000Y-15240000D01*
X203911200Y-74676000D02*
X201676000Y-74676000D01*
X177952400Y-46126400D02*
X177952400Y-60844400D01*
X181534000Y-66370400D02*
X181534000Y-64426000D01*
X237236000Y-61750000D02*
X237309600Y-61750000D01*
X220268800Y-15595600D02*
X225117600Y-15595600D01*
X226364800Y-91135200D02*
X228396800Y-89103200D01*
X231292400Y-26974800D02*
X231292400Y-27533600D01*
X228396800Y-89103200D02*
X237134400Y-80365600D01*
X237134400Y-80365600D02*
X237134400Y-75184000D01*
X209714000Y-87198000D02*
X209714000Y-89368800D01*
X199186800Y-74676000D02*
X194106800Y-69596000D01*
X211836000Y-91490800D02*
X219442000Y-91490800D01*
X205068000Y-18212000D02*
X202288000Y-18212000D01*
X182981600Y-67818000D02*
X181534000Y-66370400D01*
X224536000Y-79908400D02*
X226212400Y-81584800D01*
X202288000Y-18212000D02*
X200152000Y-20348000D01*
X219292000Y-16572400D02*
X220268800Y-15595600D01*
X237309600Y-61750000D02*
X238658400Y-60401200D01*
X181534000Y-73177600D02*
X198780400Y-90424000D01*
X201676000Y-74676000D02*
X199186800Y-74676000D01*
X180734800Y-43344000D02*
X177952400Y-46126400D01*
X232918000Y-66141600D02*
X232918000Y-62534800D01*
X240842800Y-37084000D02*
X240030000Y-36271200D01*
X246202000Y-38430000D02*
X244856000Y-37084000D01*
X233702800Y-61750000D02*
X237236000Y-61750000D01*
X191770000Y-42011600D02*
X187299600Y-46482000D01*
X207111600Y-71475600D02*
X203911200Y-74676000D01*
X194106800Y-69596000D02*
X194106800Y-62687200D01*
X200558400Y-90424000D02*
X200609200Y-90474800D01*
X233222800Y-25044400D02*
X232410000Y-25857200D01*
X198780400Y-90424000D02*
X200558400Y-90424000D01*
X221330400Y-79908400D02*
X224536000Y-79908400D01*
X223277600Y-89165600D02*
X225247200Y-91135200D01*
X209714000Y-89368800D02*
X211836000Y-91490800D01*
X216320000Y-15240000D02*
X219292000Y-18212000D01*
X199898000Y-86050000D02*
X200096000Y-85852000D01*
X219292000Y-18212000D02*
X219292000Y-16572400D01*
X232410000Y-25857200D02*
X231292400Y-26974800D01*
X190726000Y-63500000D02*
X191008000Y-63218000D01*
X237873600Y-43891200D02*
X237744000Y-43761600D01*
X240741200Y-42519600D02*
X239369600Y-43891200D01*
X191617600Y-29842400D02*
X191617600Y-34137600D01*
X192661600Y-40414000D02*
X193192400Y-40944800D01*
X200152000Y-22504400D02*
X201828400Y-24180800D01*
X211937600Y-24790400D02*
X220813600Y-24790400D01*
X242519200Y-29718000D02*
X244957600Y-32156400D01*
X207199200Y-24180800D02*
X209968000Y-21412000D01*
X237236000Y-63347600D02*
X235762800Y-64820800D01*
X192430400Y-39753600D02*
X191770000Y-40414000D01*
X189331600Y-63500000D02*
X190726000Y-63500000D01*
X237744000Y-43761600D02*
X237316400Y-44189200D01*
X191008000Y-63218000D02*
X191008000Y-64312800D01*
X244957600Y-32156400D02*
X244957600Y-33934400D01*
X220813600Y-24790400D02*
X224192000Y-21412000D01*
X209968000Y-21412000D02*
X209968000Y-22820800D01*
X233629200Y-50597200D02*
X239104400Y-45122000D01*
X237236000Y-62710000D02*
X237236000Y-63347600D01*
X192430400Y-37693600D02*
X192430400Y-39753600D01*
X184734000Y-59526000D02*
X185357600Y-59526000D01*
X244957600Y-33934400D02*
X242925600Y-35966400D01*
X185357600Y-59526000D02*
X189331600Y-63500000D01*
X189800000Y-38444000D02*
X191770000Y-40414000D01*
X218377600Y-81901200D02*
X218377600Y-84455200D01*
X226942200Y-28949200D02*
X239261200Y-28949200D01*
X215761200Y-81838800D02*
X218377600Y-84455200D01*
X240030000Y-29718000D02*
X242519200Y-29718000D01*
X209968000Y-22820800D02*
X211937600Y-24790400D01*
X243408400Y-63765600D02*
X238291600Y-63765600D01*
X238291600Y-63765600D02*
X237236000Y-62710000D01*
X220370400Y-79908400D02*
X218377600Y-81901200D01*
X200152000Y-21308000D02*
X191617600Y-29842400D01*
X243002000Y-45122000D02*
X239104400Y-45122000D01*
X228750000Y-21412000D02*
X229362000Y-20800000D01*
X185750000Y-38444000D02*
X189800000Y-38444000D01*
X224192000Y-21412000D02*
X228750000Y-21412000D01*
X200152000Y-21308000D02*
X200152000Y-22504400D01*
X233629200Y-51511200D02*
X233629200Y-50597200D01*
X199898000Y-85090000D02*
X200990000Y-83998000D01*
X198475600Y-63855600D02*
X199796400Y-63855600D01*
X206973200Y-81838800D02*
X215761200Y-81838800D01*
X200990000Y-83998000D02*
X204814000Y-83998000D01*
X201828400Y-24180800D02*
X207199200Y-24180800D01*
X191008000Y-64312800D02*
X192379600Y-65684400D01*
X239104400Y-45122000D02*
X237744000Y-43761600D01*
X199796400Y-63855600D02*
X201676000Y-61976000D01*
X193192400Y-40944800D02*
X193192400Y-51067600D01*
X226942200Y-28949200D02*
X226942200Y-24162200D01*
X239369600Y-43891200D02*
X237873600Y-43891200D01*
X237316400Y-44189200D02*
X226942200Y-44189200D01*
X199898000Y-79451200D02*
X194767200Y-74320400D01*
X226942200Y-24162200D02*
X224192000Y-21412000D01*
X199898000Y-85090000D02*
X199898000Y-79451200D01*
X240741200Y-41960800D02*
X240741200Y-42519600D01*
X193192400Y-51067600D02*
X184734000Y-59526000D01*
X239261200Y-28949200D02*
X240030000Y-29718000D01*
X191770000Y-40414000D02*
X192661600Y-40414000D01*
X204814000Y-83998000D02*
X206973200Y-81838800D01*
X236614800Y-40222000D02*
X243002000Y-40222000D01*
X234340400Y-37947600D02*
X236614800Y-40222000D01*
X225272800Y-18212000D02*
X226314000Y-19253200D01*
X224192000Y-18212000D02*
X225272800Y-18212000D01*
X213168000Y-21412000D02*
X209968000Y-18212000D01*
X219292000Y-21412000D02*
X213168000Y-21412000D01*
X181534000Y-54228800D02*
X181534000Y-59526000D01*
X185750000Y-50012800D02*
X181534000Y-54228800D01*
X185750000Y-43344000D02*
X185750000Y-50012800D01*
X184734000Y-73786800D02*
X199796400Y-88849200D01*
X184734000Y-64426000D02*
X184734000Y-73786800D01*
X199796400Y-88849200D02*
X201447600Y-87198000D01*
X201447600Y-87198000D02*
X204814000Y-87198000D01*
X246227600Y-55118000D02*
X246202000Y-55092400D01*
X246227600Y-56046400D02*
X246227600Y-55118000D01*
X246202000Y-55092400D02*
X246202000Y-45122000D01*
X243408400Y-58865600D02*
X246227600Y-56046400D01*
X214720400Y-83998000D02*
X218377600Y-87655200D01*
X209714000Y-83998000D02*
X214720400Y-83998000D01*
X225918800Y-84455200D02*
X246608400Y-63765600D01*
X223277600Y-84455200D02*
X225918800Y-84455200D01*
X196342000Y-37594000D02*
X196342000Y-38862000D01*
X196342000Y-38862000D02*
X201676000Y-44196000D01*
X196342000Y-36574000D02*
X184420000Y-36574000D01*
X184420000Y-36574000D02*
X182550000Y-38444000D01*
M02*
