M48
; DRILL file {KiCad (6.0.8-1)-1} date Monday, 07 August 2023 at 08:14:20
; FORMAT={-:-/ absolute / metric / decimal}
; #@! TF.CreationDate,2023-08-07T08:14:20+01:00
; #@! TF.GenerationSoftware,Kicad,Pcbnew,(6.0.8-1)-1
; #@! TF.FileFunction,Plated,1,2,PTH
FMAT,2
METRIC
; #@! TA.AperFunction,Plated,PTH,ViaDrill
T1C0.400
; #@! TA.AperFunction,Plated,PTH,ComponentDrill
T2C1.000
; #@! TA.AperFunction,Plated,PTH,ComponentDrill
T3C1.100
%
G90
G05
T1
X182.982Y-67.818
X183.744Y-46.431
X187.3Y-46.482
X189.281Y-61.62
X191.618Y-34.138
X192.38Y-65.684
X192.43Y-37.694
X194.767Y-74.32
X198.476Y-63.856
X200.609Y-90.475
X202.54Y-85.852
X206.451Y-91.897
X207.112Y-71.476
X226.212Y-81.585
X226.314Y-19.253
X227.889Y-85.903
X229.819Y-38.862
X231.292Y-27.534
X232.207Y-32.258
X232.918Y-66.142
X233.629Y-51.511
X234.34Y-37.948
X235.356Y-41.707
X235.763Y-64.821
X237.134Y-75.184
X238.658Y-60.401
X239.42Y-38.506
X240.741Y-41.961
X242.926Y-35.966
X250.139Y-60.401
T2
X201.676Y-28.956
X201.676Y-31.496
X201.676Y-34.036
X201.676Y-36.576
X201.676Y-39.116
X201.676Y-41.656
X201.676Y-44.196
X201.676Y-46.736
X201.676Y-49.276
X201.676Y-51.816
X201.676Y-54.356
X201.676Y-56.896
X201.676Y-59.436
X201.676Y-61.976
X201.676Y-64.516
X201.676Y-67.056
X201.676Y-69.596
X201.676Y-72.136
X201.676Y-74.676
X226.942Y-28.949
X226.942Y-31.489
X226.942Y-34.029
X226.942Y-36.569
X226.942Y-39.109
X226.942Y-41.649
X226.942Y-44.189
X226.942Y-46.729
X226.942Y-49.269
X226.942Y-51.809
X226.942Y-54.349
X226.942Y-56.889
X226.942Y-59.429
X226.942Y-61.969
X226.942Y-64.509
X226.942Y-67.049
X226.942Y-69.589
X226.942Y-72.129
X226.942Y-74.669
T3
X240.03Y-29.718
X240.03Y-32.258
T0
M30
